# xmcd
#
# Track frame offsets:
#	150
#	10513
#	24091
#	36287
#	46033
#	56737
#	67785
#	79404
#	89130
#	99962
#	114069
#	125959
#	135204
#	144829
#	156561
#	166416
#	177614
#	186143
#	199743
#	211761
#	221928
#	233170
#	243509
#	253767
#
# Disc length: 3553 seconds
#
# Revision: 1
# Processed by: cddbd v1.5.2PL0 Copyright (c) Steve Scherf et al.
# Submitted via: EZCDAudioConverter 6.0.9.1
#
DISCID=4b0ddf18
DTITLE=Red Sovine - I'm The Man-A Starday Singles Anthology
DYEAR=2012
DGENRE=Oldies
TTITLE0=No Money In This Deal
TTITLE1=Sittin' And Thinkin'
TTITLE2=Brand New Low
TTITLE3=Hold Everything
TTITLE4=She Can't Read My Writing
TTITLE5=Waltzing With Sin
TTITLE6=Why Baby Why
TTITLE7=King Of The Open Road
TTITLE8=East Of West Berlin
TTITLE9=I Think I Can Sleep Tonight
TTITLE10=Color Of The Blues
TTITLE11=Accidently On Purpose
TTITLE12=Nobody's Business
TTITLE13=I Hope My Wife Don't Find Out
TTITLE14=Don't Let My Glass Run Dry
TTITLE15=I'm The Man
TTITLE16=Between Closing Time And Dawn
TTITLE17=Blues Stay Away From Me
TTITLE18=Three Hearts In A Tangle
TTITLE19=Why Don't You Haul Off And Love Me
TTITLE20=Enough To Take The Me Out Of The Man
TTITLE21=I'm Waiting Just For You
TTITLE22=I'll Sail My Ship Alone
TTITLE23=I Am A Pilgrim
EXTD=
EXTT0=
EXTT1=
EXTT2=
EXTT3=
EXTT4=
EXTT5=
EXTT6=
EXTT7=
EXTT8=
EXTT9=
EXTT10=
EXTT11=
EXTT12=
EXTT13=
EXTT14=
EXTT15=
EXTT16=
EXTT17=
EXTT18=
EXTT19=
EXTT20=
EXTT21=
EXTT22=
EXTT23=
PLAYORDER=
